<svg xmlns="http://www.w3.org/2000/svg" width="134" height="40" fill="none" viewBox="0 0 134 40">
  <path fill="#030370" d="M118.175 27.55v-2.777h-.919c-2.155 0-4.121.484-4.121 2.003 0 1.164.761 1.582 2.314 1.582 1.237 0 2.253-.388 2.726-.809m4.661-6.041v8.495c-1.712 1.324-4.47 2.036-8.21 2.036-3.328 0-6.088-1.39-6.088-4.458 0-4.62 4.408-5.75 9.637-5.91-.095-2.004-.886-2.52-2.631-2.52-.918 0-3.36.42-3.678.42-.762 0-1.364-.485-1.869-1.907l-.381-1.164c1.966-.743 3.897-1.258 5.99-1.258 4.567 0 7.23 1.744 7.23 6.266M101.704 15.664c.665-.292 1.491-.452 2.409-.452.921 0 1.712.162 2.377.452v16.021h-4.786zm-.062-5.105c0-1.357 1.107-2.488 2.439-2.488a2.47 2.47 0 0 1 2.474 2.488c0 1.324-1.11 2.488-2.474 2.488-1.332 0-2.439-1.099-2.439-2.488M98.935 20.185v11.5H94.18v-9.788c0-1.712-1.11-2.584-3.044-2.584-.73 0-1.426.096-2.028.258v12.114H84.32l.03-14.373c1.999-1.357 5.232-2.1 7.863-2.1 3.646-.002 6.722 1.841 6.722 4.973M72.04 21.834h5.23V21.8c0-2.133-1.045-3.39-2.473-3.39-1.426 0-2.442.87-2.758 3.423m10.017 2.84H71.975c.253 2.262 1.394 3.553 3.646 3.553 1.806 0 3.581-.322 4.945-.776.667.743 1.078 1.712 1.204 3.49-1.839.679-3.962 1.13-6.814 1.13-4.597 0-7.8-2.746-7.8-7.914 0-5.427 3.139-8.98 7.957-8.98 4.343 0 7.133 2.843 7.133 7.43 0 .743-.062 1.294-.19 2.067M67.578 10.495l-5.453 21.223c-1.68.29-3.55.355-5.61 0L52.71 17.472l-3.868 14.246c-1.712.322-3.519.355-5.547 0L37.81 10.495a12 12 0 0 1 5.134 0l3.554 14.955 3.424-14.957c1.712-.355 3.74-.388 5.516 0l4.12 15.02 2.885-15.02a11.9 11.9 0 0 1 5.135.002M30.339 10.15h-1.652c-.775 0-1.437.57-1.564 1.35l-1.92 11.747c-.087.52-.528.901-1.044.901h-5.606c-.516 0-.957-.381-1.04-.9l-1.042-6.366a1.6 1.6 0 0 0-1.564-1.35h-2.532c-.875.003-1.585.726-1.585 1.616v5.383c0 .892.71 1.615 1.585 1.615h4.389c.516 0 .957.381 1.043.899l.865 5.288c.129.779.789 1.35 1.563 1.35h2.246c.774 0 1.435-.57 1.564-1.35l.865-5.288c.083-.52.527-.899 1.043-.899h4.388c.875 0 1.585-.723 1.585-1.615V11.767c-.002-.894-.712-1.618-1.587-1.618"/>
</svg>
