<svg xmlns="http://www.w3.org/2000/svg" width="82" height="40" fill="none" viewBox="0 0 82 40">
  <path fill="#404040" fill-opacity=".48" fill-rule="evenodd" d="M64.054 4.77c.332 0 .78.24.904.664l2.392 8.388 1.22 4.39 3.64 12.78v3.079c.009.65-.344 1.186-.782 1.201h-5.44c-.44-.015-.791-.551-.782-1.201v-3.163h3.307c.429-.028.771-.55.761-1.2q0-.226-.057-.438l-2.62-9.8-1.143-4.42-.791-2.825c-.086-.48-.582-.748-.79 0" clip-rule="evenodd"/>
  <path fill="#404040" fill-rule="evenodd" d="m60.543 11.363.166-.566c.04-.145.062-.299.061-.453a1.45 1.45 0 0 0-.243-.843c-.159-.225-.376-.355-.604-.36H55.21V5.972a1.45 1.45 0 0 1 .243-.842c.159-.226.376-.355.605-.36h7.906c.476.013.859.55.848 1.202v3.084l-5.809 20.317q-.06.212-.062.438c-.004.31.08.61.235.834.154.225.367.358.592.369h3.586v3.169c.003.314-.084.617-.243.842s-.376.355-.604.36h-6.77c-.229-.005-.446-.134-.605-.36a1.45 1.45 0 0 1-.243-.842v-3.084zM45.206 35.372c-.228-.005-.445-.135-.604-.36a1.45 1.45 0 0 1-.243-.843V5.973a1.45 1.45 0 0 1 .242-.843c.16-.226.377-.355.605-.36h7.535c.475.013.858.55.848 1.202v3.17h-5.013c-.215.004-.42.12-.576.325a1.4 1.4 0 0 0-.262.778v5.772c-.003.314.084.617.243.843.16.225.377.355.605.36h3.803v4.371h-3.803c-.228.005-.446.135-.605.36a1.45 1.45 0 0 0-.243.843v7.003c-.003.314.084.617.243.843s.377.355.605.36h5.003v3.17c.003.313-.085.616-.244.842s-.376.355-.604.36M34.024 35.372c-.229-.005-.446-.135-.605-.36a1.45 1.45 0 0 1-.243-.843V5.973a1.45 1.45 0 0 1 .243-.843c.159-.226.376-.355.605-.36h7.534c.475.013.858.55.847 1.202v3.17h-5.013c-.214.004-.42.121-.575.326a1.4 1.4 0 0 0-.262.777v5.772c-.003.314.085.617.244.843s.376.355.604.36h3.804v4.371h-3.804c-.228.005-.445.135-.604.36a1.45 1.45 0 0 0-.244.843v7.003c-.003.314.084.617.243.843.16.226.377.355.605.36h5.002v3.17c.003.313-.084.616-.243.841-.159.226-.376.355-.604.36zM27.461 26.02c0-2.843-.578-3.764-2.12-3.764h-.319c-.228.005-.445.135-.604.36a1.45 1.45 0 0 0-.243.843v11.926h-2.543c-.228-.005-.445-.134-.604-.36a1.45 1.45 0 0 1-.244-.842l-.01-28.211a1.45 1.45 0 0 1 .243-.842c.16-.225.376-.355.604-.36h4.177c3.503 0 5.012 2.32 5.012 7.046v1.881c0 3.155-.713 5.165-2.212 6.04v.087c1.695.75 2.243 3.013 2.243 6.479v7.88c.003.314-.085.617-.243.842-.16.225-.376.355-.604.36H27.46m-3.297-18.703c-.003.314.084.617.243.842.16.226.377.355.605.36h.383c1.26 0 2.025-.791 2.025-3.239v-2.363c0-2.193-.528-3.154-1.726-3.154h-.692c-.228.005-.446.134-.605.36a1.45 1.45 0 0 0-.243.842zM18.294 4.77c.475.013.858.55.847 1.202l.01 1.189v1.981h-2.687c-.228.006-.445.135-.604.36a1.45 1.45 0 0 0-.243.842v25.041h-2.542c-.229-.005-.446-.134-.605-.36a1.45 1.45 0 0 1-.243-.842v-23.84a1.45 1.45 0 0 0-.244-.842c-.159-.225-.376-.355-.604-.36H8.682v-1.64l-.01-1.529a1.45 1.45 0 0 1 .243-.842c.159-.225.376-.355.604-.36z" clip-rule="evenodd"/>
</svg>
