<svg xmlns="http://www.w3.org/2000/svg" width="262" height="40" fill="none" viewBox="0 0 262 40">
  <path fill="#fff" d="m21.861 27.577.392.02v3.216l.925.16v-3.94l-1.317-.038zM21.861 20.388l.392-.089v2.75l.925-.103v-3.439l-1.317.323zM21.861 16.47l.392-.146v2.898q.468-.118.928-.237v-3.622l-1.32.516zM22.592 13.897l-.324.801-.407.172v.48l1.317-.536v-.504l-.233.098zM21.861 24.159l.392-.033v2.397l.925.015v-3.073l-1.317.133zM17.856 27.401l.31.012v2.685l.95.166v-3.343l-1.26-.036zM17.856 17.968l.31-.116v2.415q.477-.119.95-.244v-3.067l-1.26.495zM18.522 15.638l-.321.784-.345.148v.41l1.26-.514v-.433l-.25.107zM17.856 21.302l.31-.071v2.284l.95-.11v-2.91l-1.26.308zM17.856 24.503l.31-.024v1.982l.95.012v-2.599l-1.26.128zM19.973 27.496l.236.01v2.948l.94.166v-3.643l-1.176-.033zM19.973 17.175l.236-.086v2.652l.94-.24v-3.344l-1.176.463zM20.554 14.77l-.321.791-.26.11v.448l1.176-.477v-.47l-.242.105zM19.974 24.322l.235-.02v2.189l.94.015v-2.837l-1.175.119zM19.974 20.821l.235-.053v2.516l.94-.107v-3.175l-1.175.285zM12.41 18.252l-.306.76-.297.124v.303l1.219-.493v-.326l-.274.116zM11.807 27.131l.215.01v1.88l1.004.175v-2.444l-1.22-.03zM11.807 25.02l.215-.019v1.365l1.004.015v-1.893l-1.22.125zM11.807 20.234l.215-.08v1.7q.499-.128 1.004-.261V19.35l-1.22.477zM11.807 22.684l.215-.047v1.578l1.004-.113v-2.124l-1.22.297zM13.848 19.468l.22-.08v1.935q.496-.129.987-.253v-2.515l-1.207.471zM13.848 27.223l.22.01v2.144l.987.175v-2.744l-1.207-.033zM14.448 17.38l-.312.768-.288.122v.341l1.207-.492v-.362l-.265.115zM13.848 24.844l.22-.02v1.575l.987.011v-2.127l-1.207.122zM13.848 22.216l.22-.048v1.816l.987-.113v-2.385l-1.207.29zM15.818 18.733l.294-.113v2.172q.492-.124.975-.25v-2.791l-1.27.501zM15.818 21.77l.291-.068v2.047l.975-.11V20.99l-1.266.312zM16.484 16.51l-.316.775-.35.151v.374l1.266-.516v-.398l-.256.11zM15.818 27.312l.292.01v2.414l.974.17v-3.042l-1.266-.035zM15.818 24.678l.292-.027v1.777l.974.015v-2.361l-1.266.124zM30.167 18.493l.303-.072v3.694l.83-.095v-4.489l-1.134.273zM30.732 10.414l-.339.834-.227.095v.629l1.134-.463v-.65l-.2.09zM30.167 23.45l.303-.024v3.222l.83.015v-4.014l-1.134.113zM30.167 13.357l.303-.113v3.884l.83-.21V12.17l-1.134.445zM30.167 27.947l.303.015v4.29l.83.149v-5.148l-1.134-.03zM28.09 23.628l.321-.027v3.018l.86.011v-3.776l-1.18.115zM28.09 18.964l.321-.071v3.456l.86-.098v-4.227l-1.18.287zM28.09 14.137l.324-.121v3.634c.297-.074.58-.145.86-.22v-4.462l-1.18.463v.706zM28.697 11.283l-.336.825-.27.119v.59l1.18-.48v-.614l-.212.088zM28.09 27.855l.321.015v4.023l.86.149v-4.84l-1.18-.035zM32.243 18.018l.283-.066v3.929l.806-.095v-4.75l-1.09.264zM32.767 9.545l-.339.84-.185.077v.664l1.09-.442V10l-.192.083zM32.243 28.04l.283.011v4.563l.806.143v-5.445l-1.09-.032zM32.243 12.577l.283-.107v4.136c.294-.074.565-.143.803-.205v-5.029l-1.086.428zM32.243 23.272l.283-.024v3.433l.806.015v-4.252l-1.09.107zM26.014 19.439l.341-.077v3.222l.887-.101v-3.964l-1.228.3zM26.014 14.915l.344-.13v3.387q.45-.113.884-.225v-4.183l-1.228.48zM26.014 23.806l.341-.03v2.81l.887.015v-3.546l-1.228.125zM26.662 12.156l-.33.816-.318.133v.555l1.228-.499v-.575l-.218.092zM26.014 27.763l.341.015v3.756l.887.155v-4.546l-1.228-.032zM23.938 23.984l.362-.033v2.605l.91.012V23.26l-1.273.127zM24.624 13.028l-.324.807-.363.151v.52l1.273-.52v-.54l-.227.098zM23.938 19.914l.362-.084v2.988l.91-.104v-3.7l-1.273.31zM23.938 15.692l.362-.136v3.141q.46-.116.91-.228V14.56l-1.273.502zM23.938 27.671l.362.015v3.483l.91.163v-4.245l-1.273-.033zM56.086 25.129v-.427l-1.23-.14v2.234l.918.006V25.1zM56.086 27.666v-.472l-1.23.009v2.88l.918-.133v-2.276zM56.086 19.513v-.472l-1.23-.471v2.655l.918.237V19.4zM56.086 18.252l-.253-.104-.306-.753-.339.486-.333-.14v.375l1.231.486zM56.086 22.379v-.445l-1.23-.303v2.504l.918.116v-1.943zM49.94 20.964v-.537l-1.313-.324v10.882l.895-.127v-9.99zM49.94 15.707l-.286-.119-.315-.783-.35.507-.362-.154v.484l1.313.522zM49.522 17.092l.418.157v-.572l-1.313-.505v3.45l1.313.34v-.591l-.418-.113zM39.367 18.525v-.688l-1.125-.276v4.506l.825.101v-3.714zM39.367 23.51v-.686l-1.125-.125v4.032l.825.003v-3.252zM39.367 11.325l-.156-.062-.333-.828-.368.534-.268-.113v.659l1.125.45zM39.367 13.36v-.747l-1.125-.43v4.773l.825.214v-3.92zM39.367 28.042v-.727l-1.125.006v5.171l.825-.121v-4.32zM54.078 21.916v-.475l-1.299-.317v2.753l.913.116v-2.169zM54.078 18.777v-.51l-1.299-.498v2.922l.913.234v-2.287zM54.078 24.936v-.46l-1.299-.145v2.46h.913v-1.896zM54.078 27.713v-.505l-1.299.01v3.168l.913-.133v-2.531zM54.078 17.422l-.286-.12-.306-.756-.339.49-.368-.154v.412l1.299.516zM58.163 19.116l-.265-.113-.304-.742-.333.48-.33-.139v.338l1.232.49zM58.163 20.278v-.439l-1.231-.471v2.39l.924.238v-1.833zM58.163 25.33v-.394l-1.231-.14v2.006l.924.006v-1.507zM58.163 22.86v-.416l-1.231-.303v2.252l.924.116v-1.72zM58.163 27.62v-.444l-1.231.012v2.596l.924-.137V27.63zM60.189 23.325v-.386l-1.181-.29v2.005l.919.116v-1.504zM60.189 21.026v-.41l-1.181-.45v2.124l.919.24v-1.599zM60.189 19.955l-.286-.119-.297-.736-.327.475-.271-.11v.303l1.181.469zM60.189 25.526v-.361l-1.181-.134v1.783l.919.003V25.5zM60.189 27.576v-.412l-1.181.009v2.308l.919-.133v-1.766zM51.445 15.686l-.348.498-.394-.163v.445l1.351.537v-.42l-.297-.123zM50.703 21.136l.527.122v9.35l.825-.118v-9.544l-1.352-.332zM50.703 17.534l.527.196v1.988l-.527-.146v.585l1.352.35v-3.014l-1.352-.522zM34.723 7l-.215 1.739-.245.4v1.166l.457-.187h.002l.46.181V9.14l-.245-.397zM34.263 16.807v4.875l.46-.05.456.056v-4.88l-.457-.11zM34.72 10.827l-.457.178v5.162c.28-.071.439-.113.46-.116l.453.116v-5.032h.003v-.13zM34.723 26.716h.456v-4.364l-.46-.05-.456.047v4.358zM34.72 27.348l-.457-.012v5.58l.465.084.451-.065v-5.59l-.457.003M41.482 14.14v-.712l-1.164-.45v4.512l.843.217v-3.685zM41.482 23.717v-.656l-1.164-.127v3.803l.843.006v-3.059zM41.482 12.203l-.198-.086-.332-.816-.366.528-.268-.11v.624l1.164.462zM41.482 19.012v-.656l-1.164-.288v4.26l.843.101v-3.492zM41.482 27.998v-.7l-1.164.012v4.88l.843-.122v-4.064zM37.252 10.447l-.162-.065-.338-.834-.371.54-.215-.092v.694l1.086.433zM37.252 28.093v-.763l-1.086.009v5.453l.807-.116v-4.575zM37.252 12.58v-.78l-1.086-.419v5.04l.807.209v-4.151zM37.252 18.036v-.718l-1.086-.267v4.759l.807.1v-3.94zM37.252 23.307v-.72l-1.086-.122v4.257l.807.003v-3.444zM45.71 24.123v-.587l-1.24-.14v3.359l.879.003v-2.67zM45.71 15.695v-.644l-1.24-.478v3.982l.879.225v-3.219zM45.71 27.903v-.632l-1.24.009v4.308l.879-.125v-3.551zM45.71 19.988v-.6l-1.24-.3v3.754l.879.11v-3.053zM45.71 13.954l-.252-.104-.322-.801-.359.519-.306-.128v.552l1.24.492zM47.828 20.474v-.567l-1.28-.311v3.507l.889.11v-2.828zM47.828 16.472v-.608l-1.28-.49v3.715l.889.229v-2.985zM47.828 24.328v-.555l-1.28-.142v3.133l.889.003v-2.475zM47.828 27.852v-.599l-1.28.009v4.026l.889-.128v-3.296zM47.828 14.832l-.235-.098-.324-.798-.357.516-.365-.154v.519l1.281.507zM43.6 13.078l-.225-.092-.327-.804-.359.52-.291-.122v.587l1.201.475zM43.6 27.95v-.667l-1.203.009v4.598l.855-.124v-3.81zM43.6 14.92v-.682l-1.203-.46v4.243l.855.22v-3.448zM43.6 19.498v-.626l-1.203-.294v4.009l.855.104v-3.273zM43.6 23.922v-.623l-1.203-.134v3.584h.855v-2.86zM77.293 15.066v14.472h-2.51L69.11 16.993h-.043v12.545h-1.63V15.066h2.586l5.585 12.38h.044v-12.38zM84.215 28.082h-.044c-.5 1.16-1.271 1.664-2.532 1.664-2.13 0-2.738-1.38-2.738-3.317 0-3.076 2.977-3.208 5.27-3.153.043-1.347.054-2.802-1.695-2.802-1.098 0-1.674.733-1.576 1.806H79.13c.076-2.266 1.271-3.054 3.401-3.054 2.586 0 3.26 1.346 3.26 3.054v4.871c0 .81.087 1.631.207 2.408h-1.793v-1.477zm-3.684-1.544c0 .985.478 1.861 1.575 1.861 1 0 2.228-.624 2.065-3.886-1.554.01-3.64-.12-3.64 2.025M92.843 22.663c.043-1.664-.772-2.102-1.392-2.102-1.25 0-2.108.602-2.108 3.372 0 3.284.413 4.466 2.108 4.466.38 0 1.51-.405 1.457-2.222h1.716c.066 2.846-2.042 3.569-3.162 3.569-2.119 0-3.814-.635-3.814-5.112 0-2.967.337-5.408 3.814-5.408 2.01 0 3.184 1.182 3.087 3.448h-1.707zM96.005 15.066h1.825v1.762h-1.825zm1.738 14.472h-1.63V19.412h1.63zM98.895 24.622c0-2.966.337-5.407 3.825-5.407s3.825 2.44 3.825 5.407c0 4.478-1.684 5.113-3.825 5.113-2.13 0-3.825-.635-3.825-5.113m5.922-.69c0-2.769-.858-3.37-2.108-3.37s-2.108.601-2.108 3.37c0 3.285.413 4.467 2.108 4.467s2.108-1.182 2.108-4.466M113.174 22.52c0-1.072-.38-1.959-1.771-1.959-1.793 0-2.054 1.61-2.054 2.989v5.988h-1.63v-8.014c0-.7-.044-1.412-.098-2.112h1.728v1.313h.076c.641-1.138 1.391-1.5 2.684-1.5 2.151 0 2.684 1.303 2.684 3.307v7.017h-1.619zM121.454 28.082h-.033c-.499 1.16-1.271 1.664-2.532 1.664-2.129 0-2.749-1.38-2.749-3.317 0-3.076 2.988-3.208 5.281-3.153.033-1.347.055-2.802-1.695-2.802-1.097 0-1.662.733-1.576 1.806h-1.771c.087-2.266 1.272-3.054 3.402-3.054 2.586 0 3.259 1.346 3.259 3.054v4.871c0 .81.077 1.631.196 2.408h-1.793v-1.477zm-3.673-1.544c0 .985.478 1.861 1.565 1.861.999 0 2.227-.624 2.075-3.886-1.554.01-3.64-.12-3.64 2.025M126.431 29.538h-1.63V15.066h1.63zM132.799 29.538h-1.717V15.066h2.966l3.619 12.15h.043l3.663-12.15h3.02v14.472h-1.825V16.675h-.044l-4.02 12.863h-1.728l-3.934-12.863h-.043zM145.795 24.622c0-2.966.337-5.407 3.814-5.407s3.814 2.44 3.814 5.407c0 4.478-1.695 5.113-3.814 5.113-2.13 0-3.814-.635-3.814-5.113m5.922-.69c0-2.769-.858-3.37-2.108-3.37-1.26 0-2.108.601-2.108 3.37 0 3.285.413 4.467 2.108 4.467 1.685 0 2.108-1.182 2.108-4.466M160.074 22.52c0-1.072-.381-1.959-1.772-1.959-1.793 0-2.053 1.61-2.053 2.989v5.988h-1.63v-8.014c0-.7-.044-1.412-.098-2.112h1.728v1.313h.076c.641-1.138 1.391-1.5 2.684-1.5 2.151 0 2.684 1.303 2.684 3.307v7.017h-1.619zM163.355 19.412v-1.938l1.63-.744v2.682h2.185v1.237h-2.185v6.196c0 .635 0 1.467 1.489 1.467.12 0 .38-.044.739-.088v1.259c-.532.044-1.076.164-1.608.164-1.554 0-2.25-.635-2.25-1.806v-7.203h-1.651v-1.226z"/>
  <path fill="#fff" d="M168.908 25.006c0 2.824.75 3.393 2.032 3.393 1.109 0 1.685-.909 1.75-1.927h1.793c-.022 2.244-1.402 3.274-3.499 3.274-2.13 0-3.815-.635-3.815-5.112 0-2.967.337-5.408 3.815-5.408 2.868 0 3.575 1.576 3.575 4.926v.864h-5.651zm3.923-1.238c0-2.944-.815-3.305-2.01-3.305-1.033 0-1.902.503-1.913 3.305zM184.208 15.066h1.63v14.472h-1.63v-1.205h-.043c-.554.942-1.25 1.402-2.304 1.402-1.608 0-3.238-.635-3.238-5.09 0-2.53.076-5.43 3.325-5.43.956 0 1.652.416 2.206 1.226h.065v-5.375zm-1.891 5.495c-1.749 0-1.988 1.401-1.988 4.105 0 1.522 0 3.733 2.043 3.733 1.836 0 1.836-2.288 1.836-4.324 0-1.346-.087-3.514-1.891-3.514M189.044 25.006c0 2.824.761 3.393 2.032 3.393 1.119 0 1.684-.909 1.749-1.927h1.793c-.021 2.244-1.391 3.274-3.499 3.274-2.129 0-3.825-.635-3.825-5.112 0-2.967.348-5.408 3.825-5.408 2.858 0 3.576 1.576 3.576 4.926v.864h-5.651zm3.912-1.238c0-2.944-.815-3.305-2.01-3.305-1.033 0-1.891.503-1.913 3.305zM199.443 29.538V15.066h4.26c1.934 0 3.999.722 3.999 4.127 0 3.284-2.543 3.963-4.021 3.963h-2.401v6.37h-1.837zm1.837-7.97h2.01c.75 0 2.543-.208 2.543-2.463 0-2.211-1.63-2.43-2.021-2.43h-2.532zM208.56 15.066h1.826v1.762h-1.826zm1.728 14.472h-1.63V19.412h1.63zM213.32 25.006c0 2.824.75 3.393 2.032 3.393 1.119 0 1.695-.909 1.749-1.927h1.793c-.021 2.244-1.391 3.274-3.499 3.274-2.13 0-3.814-.635-3.814-5.112 0-2.967.337-5.408 3.814-5.408 2.869 0 3.586 1.576 3.586 4.926v.864h-5.661zm3.912-1.238c0-2.944-.815-3.305-2-3.305-1.043 0-1.89.503-1.912 3.305zM227.218 15.066v14.472h-1.63v-1.205h-.032c-.566.942-1.25 1.402-2.304 1.402-1.619 0-3.249-.635-3.249-5.09 0-2.53.076-5.43 3.314-5.43.956 0 1.652.416 2.206 1.226h.054v-5.375zm-3.51 5.495c-1.749 0-1.988 1.401-1.988 4.105 0 1.522 0 3.733 2.043 3.733 1.836 0 1.836-2.288 1.836-4.324-.011-1.346-.087-3.514-1.891-3.514M234.01 28.082h-.033c-.5 1.16-1.271 1.664-2.532 1.664-2.13 0-2.749-1.38-2.749-3.317 0-3.076 2.977-3.208 5.27-3.153.033-1.347.055-2.802-1.695-2.802-1.087 0-1.673.733-1.576 1.806h-1.771c.076-2.266 1.272-3.054 3.401-3.054 2.587 0 3.271 1.346 3.271 3.054v4.871c0 .81.076 1.631.196 2.408h-1.793v-1.477zm-3.684-1.544c0 .985.478 1.861 1.565 1.861.999 0 2.238-.624 2.075-3.886-1.554.01-3.64-.12-3.64 2.025M242.703 15.066h1.63v14.472h-1.63v-1.205h-.033c-.565.942-1.26 1.402-2.314 1.402-1.609 0-3.249-.635-3.249-5.09 0-2.53.076-5.43 3.314-5.43.956 0 1.651.416 2.217 1.226h.065zm-1.891 5.495c-1.75 0-1.989 1.401-1.989 4.105 0 1.522 0 3.733 2.054 3.733 1.826 0 1.826-2.288 1.826-4.324 0-1.346-.076-3.514-1.891-3.514M246.615 26.177c-.891 0-1.619.756-1.619 1.675 0 .93.728 1.686 1.619 1.686.902 0 1.619-.756 1.619-1.686 0-.92-.728-1.675-1.619-1.675m0 3.153c-.793 0-1.413-.657-1.413-1.467 0-.821.62-1.456 1.413-1.456s1.413.635 1.413 1.456c0 .81-.631 1.467-1.413 1.467m-.011-2.222-.022.021-.391 1.226-.402-1.226-.022-.021h-.217l-.022.032v1.435l.022.021h.119l.022-.021v-1.172l.38 1.182.022.011h.153l.021-.021.381-1.172v1.172l.021.021h.131l.021-.021V27.14l-.021-.033zm1.13 1.4c0-.032-.011-.065-.011-.098 0-.438 0-.536-.152-.58.131-.055.163-.164.163-.34 0-.273-.087-.371-.369-.371h-.392l-.021.032v1.434l.021.022h.131l.022-.022v-.667h.217a.3.3 0 0 1 .152.044c.065.065.054.175.054.23v.032c0 .143.011.318.022.361l.022.022h.119l.022-.032zm-.424-.755h-.184v-.481h.239c.141 0 .195.033.195.219 0 .219-.076.262-.25.262"/>
</svg>
