<svg xmlns="http://www.w3.org/2000/svg" width="68" height="40" fill="none" viewBox="0 0 68 40">
  <path fill="#fff" fill-rule="evenodd" d="M53.148 13.98c2.012 3.608 3.997 7.091 5.91 10.62 1.855 3.42 1.26 7.374-1.391 9.773-2.621 2.37-6.482 2.368-9.065-.006-2.632-2.42-3.205-6.393-1.351-9.79 1.92-3.52 3.896-7.006 5.897-10.597M30.636 11.923c-.363 1.129-.586 2.33-1.113 3.374a1145 1145 0 0 1-8.567 16.602c-2.073 3.937-6.343 5.339-9.94 3.356-3.5-1.93-4.668-6.253-2.668-10.163 2.89-5.652 5.78-11.305 8.779-16.896 1.648-3.071 4.956-4.32 8.213-3.367 3.044.89 5.123 3.76 5.296 7.094M50.153 11.887c-.363 1.129-.585 2.331-1.112 3.374a1146 1146 0 0 1-8.568 16.602c-2.072 3.938-6.343 5.34-9.94 3.356-3.5-1.93-4.667-6.252-2.667-10.163 2.89-5.651 5.779-11.304 8.779-16.896 1.647-3.07 4.955-4.32 8.212-3.367 3.044.891 5.124 3.76 5.296 7.094" clip-rule="evenodd"/>
</svg>
